<?xml version="1.0" standalone="no"?>
<!DOCTYPE svg PUBLIC "-//W3C//DTD SVG 20010904//EN"
 "http://www.w3.org/TR/2001/REC-SVG-20010904/DTD/svg10.dtd">
<svg version="1.0" xmlns="http://www.w3.org/2000/svg"
 width="920.000000pt" height="920.000000pt" viewBox="0 0 920.000000 920.000000"
 preserveAspectRatio="xMidYMid meet">

<g transform="translate(0.000000,920.000000) scale(0.100000,-0.100000)"
fill="#000000" stroke="none">
<path d="M5559 7397 c-25 -7 -65 -25 -90 -39 -25 -15 -632 -616 -1425 -1410
-1547 -1549 -1428 -1418 -1428 -1573 -1 -145 -99 -37 1452 -1586 1127 -1127
1396 -1391 1437 -1410 71 -34 198 -34 272 0 59 26 129 96 165 162 33 64 33
202 -1 274 -19 40 -264 290 -1280 1308 l-1256 1257 1261 1263 c1224 1224 1262
1264 1284 1322 59 160 -17 340 -174 414 -57 26 -157 35 -217 18z"/>
</g>
</svg>
